<svg
      width="10"
      height="11"
      viewBox="0 0 24 24"
      fill="white"
      xmlns="http://www.w3.org/2000/svg"
    >
     <defs>
    <linearGradient id="grad" x1="50%" y1=" 0%" x2="100%" y2="90%">
      <stop offset="10%" style="stop-color:#08197F;stop-opacity:1" />
      <stop offset="100%" style="stop-color:#0075FF;stop-opacity:1" />
    </linearGradient>
  </defs>
      <g fill="url(#grad)">
      <path fill="none" d="M0 0h24v24H0V0z"></path>
          <path d="M4 13h6c.55 0 1-.45 1-1V4c0-.55-.45-1-1-1H4c-.55 0-1 .45-1 1v8c0 .55.45 1 1 1zm0 8h6c.55 0 1-.45 1-1v-4c0-.55-.45-1-1-1H4c-.55 0-1 .45-1 1v4c0 .55.45 1 1 1zm10 0h6c.55 0 1-.45 1-1v-8c0-.55-.45-1-1-1h-6c-.55 0-1 .45-1 1v8c0 .55.45 1 1 1zM13 4v4c0 .55.45 1 1 1h6c.55 0 1-.45 1-1V4c0-.55-.45-1-1-1h-6c-.55 0-1 .45-1 1z"></path>
      </g>
    </svg>